<!DOCTYPE svg PUBLIC "-//W3C//DTD SVG 1.1//EN" "http://www.w3.org/Graphics/SVG/1.1/DTD/svg11.dtd">
<!-- Uploaded to: SVG Repo, www.svgrepo.com, Transformed by: SVG Repo Mixer Tools -->
<svg fill="#ffffff" width="800px" height="800px" viewBox="-2 -2 24 24" xmlns="http://www.w3.org/2000/svg" preserveAspectRatio="xMinYMin" class="jam jam-volume-up-circle">
<g id="SVGRepo_bgCarrier" stroke-width="0"/>
<g id="SVGRepo_tracerCarrier" stroke-linecap="round" stroke-linejoin="round"/>
<g id="SVGRepo_iconCarrier">
<path d="M10 20C4.477 20 0 15.523 0 10S4.477 0 10 0s10 4.477 10 10-4.477 10-10 10zm0-2a8 8 0 1 0 0-16 8 8 0 0 0 0 16zm-4.88-4.744a2 2 0 0 1-2-2v-2.5a2 2 0 0 1 2-2h1.005l1.824-1.71a2 2 0 0 1 1.367-.54h.205a1.6 1.6 0 0 1 1.6 1.6v7.8a1.6 1.6 0 0 1-1.6 1.6h-.205a2 2 0 0 1-1.367-.541l-1.824-1.71H5.121zm1.796-4.5H5.121v2.5h1.795l2.205 2.067V6.689L6.916 8.756zm6.081-.731a1 1 0 0 1 0-2 3.972 3.972 0 0 1 3.972 3.971v.04a3.972 3.972 0 0 1-3.972 3.972 1 1 0 1 1 0-2 1.972 1.972 0 0 0 1.972-1.972v-.04a1.972 1.972 0 0 0-1.972-1.971zM13 9a1 1 0 1 1 0 2 1 1 0 0 1 0-2z"/>
</g>
</svg>